<svg id="social_x5F_icons" xmlns="http://www.w3.org/2000/svg" viewBox="0 0 242 32"><style>.st0{fill:#CD201F;} .st1{fill:#FFFFFF;} .st2{fill:#1DA1F2;} .st3{fill:#D93175;} .st4{fill:#4E82B7;} .st5{fill:#E27E35;} .st6{fill:#3D5A98;}</style><g id="YouTube_2_"><path class="st0" d="M126 0h32v32h-32V0z"/><path class="st1" d="M152.1 9.6c-.9-.9-1.8-.9-2.3-1-3.1-.3-7.8-.3-7.8-.3s-4.7 0-7.9.2c-.4.1-1.4.1-2.3 1-.7.7-.9 2.3-.9 2.3s-.2 1.9-.2 3.8v1.8c0 1.9.2 3.8.2 3.8s.2 1.6.9 2.3c.9.9 2 .9 2.5 1 1.8.2 7.7.2 7.7.2s4.7 0 7.9-.2c.4-.1 1.4-.1 2.3-1 .7-.7.9-2.3.9-2.3s.2-1.9.2-3.8v-1.8c0-1.9-.2-3.8-.2-3.8s-.3-1.5-1-2.2zM139.9 20v-6.6l6.1 3.3-6.1 3.3z"/></g><g id="Twitter_1_"><path class="st2" d="M168 0h32v32h-32V0z"/><path class="st1" d="M180.4 26.2c-2.5 0-4.9-.8-6.9-2 .4 0 .7.1 1.1.1 2.1 0 4.1-.7 5.6-1.9-2 0-3.6-1.3-4.2-3.1.3.1.6.1.8.1.4 0 .8-.1 1.2-.2-2.1-.4-3.6-2.2-3.6-4.4v-.3c.6.3 1.3.5 2 .6-1.2-.8-2-2.2-2-3.8 0-.8.2-1.6.6-2.3 2.2 2.7 5.5 4.5 9.3 4.7-.1-.3-.1-.7-.1-1 0-2.5 2-4.5 4.5-4.5 1.3 0 2.5.6 3.3 1.4 1-.2 2-.6 2.9-1.1-.3 1.1-1 1.9-2 2.5.9-.1 1.8-.4 2.6-.7-.6.9-1.4 1.7-2.2 2.3v.6c0 6.1-4.6 13-12.9 13"/></g><g id="Instagram_2_"><path class="st3" d="M210 0h32v32h-32V0z"/><path class="st1" d="M236.6 11.8c0-1-.2-1.8-.5-2.6s-.7-1.4-1.3-1.9c-.6-.6-1.2-1-1.9-1.3-.8-.3-1.6-.5-2.6-.5-1.1-.1-1.5-.1-4.3-.1s-3.2 0-4.3.1c-1 0-1.8.2-2.6.5s-1.4.7-1.9 1.3c-.6.6-1 1.2-1.3 1.9-.3.8-.5 1.6-.5 2.6-.1 1.1-.1 1.5-.1 4.3s0 3.2.1 4.3c0 1 .2 1.8.5 2.6s.7 1.4 1.3 1.9c.6.6 1.2 1 1.9 1.3.8.3 1.6.5 2.6.5 1.1.1 1.5.1 4.3.1s3.2 0 4.3-.1c1 0 1.8-.2 2.6-.5s1.4-.7 1.9-1.3c.6-.6 1-1.2 1.3-1.9.3-.8.5-1.6.5-2.6.1-1.1.1-1.5.1-4.3-.1-2.9-.1-3.2-.1-4.3zm-2.4 4.2c0 2.8 0 3.1-.1 4.2 0 1-.2 1.5-.3 1.8-.2.4-.4.8-.7 1.1-.3.3-.6.5-1.1.7-.3.1-.9.3-1.8.3-1.1.1-1.4.1-4.2.1s-3.1 0-4.2-.1c-1 0-1.5-.2-1.8-.3-.4-.2-.8-.4-1.1-.7-.3-.3-.5-.6-.7-1.1-.1-.3-.3-.9-.3-1.8 0-1.1-.1-1.4-.1-4.2s0-3.1.1-4.2c0-1 .2-1.5.3-1.8.2-.4.4-.8.7-1.1s.6-.5 1.1-.7c.3-.1.9-.3 1.8-.3 1.1 0 1.4-.1 4.2-.1s3.1 0 4.2.1c1 0 1.5.2 1.8.3.4.2.8.4 1.1.7s.5.6.7 1.1c.1.3.3.9.3 1.8.1 1.2.1 1.5.1 4.2z"/><path class="st1" d="M226.1 10.7c-2.9 0-5.3 2.4-5.3 5.3s2.4 5.3 5.3 5.3 5.3-2.4 5.3-5.3-2.4-5.3-5.3-5.3zm2.9 5.4c0 1.6-1.3 3-3 3s-3-1.3-3-3c0-1.6 1.3-3 3-3s3 1.3 3 3zM231.4 9.3c-.8 0-1.4.6-1.4 1.4s.6 1.4 1.4 1.4c.8 0 1.4-.6 1.4-1.4s-.7-1.4-1.4-1.4z"/></g><g id="VK"><path class="st4" d="M0 0h32v32H0V0z"/><path id="Logo" class="st1" d="M27 10.7c.2-.5 0-.9-.8-.9h-2.5c-.6 0-.9.3-1.1.7 0 0-1.3 3.1-3.1 5.2-.6.6-.9.8-1.2.8-.2 0-.4-.2-.4-.7v-5c0-.6-.2-.9-.7-.9h-4c-.4 0-.6.3-.6.6 0 .6.9.7 1 2.5v3.7c0 .8-.1 1-.5 1-.9 0-2.9-3.1-4.2-6.7-.2-.7-.5-1-1.1-1H5.3c-.7 0-.9.3-.9.7 0 .7.9 4 4 8.4 2.1 3 5 4.6 7.7 4.6 1.6 0 1.8-.4 1.8-1v-2.5c0-.7.2-.9.7-.9.4 0 1 .2 2.5 1.6 1.7 1.7 2 2.5 3 2.5h2.5c.7 0 1.1-.4.9-1.1s-1-1.7-2.1-3c-.6-.7-1.5-1.4-1.7-1.8-.4-.5-.3-.7 0-1.1-.1.1 3-4.2 3.3-5.7z"/></g><g id="OK"><path class="st5" d="M42 0h32v32H42V0z"/><path class="st1" d="M58 9c1.3 0 2.4 1.1 2.4 2.4s-1.1 2.4-2.4 2.4-2.4-1.1-2.4-2.4C55.6 10 56.7 9 58 9zm0 8c3.1 0 5.7-2.5 5.7-5.7 0-3.1-2.5-5.7-5.7-5.7s-5.7 2.6-5.7 5.7S54.9 17 58 17zM60.3 21.6c1.2-.3 2.3-.7 3.3-1.4.8-.5 1-1.5.5-2.3s-1.5-1-2.3-.5c-2.3 1.5-5.3 1.5-7.6 0-.8-.5-1.8-.3-2.3.5s-.3 1.8.5 2.3c1 .6 2.1 1.1 3.3 1.4l-3.2 3.2c-.6.6-.6 1.7 0 2.4.3.3.8.5 1.2.5s.9-.2 1.2-.5L58 24l3.1 3.2c.6.7 1.7.7 2.4 0 .6-.6.6-1.7 0-2.4l-3.2-3.2"/></g><g id="Facebook"><path class="st6" d="M84 0h32v31.9H84V0z"/><path class="st1" d="M105.7 31.9V19.5h4.3l.6-4.9h-4.8v-3.1c0-1.4.4-2.4 2.4-2.4h2.6V4.9c-.4-.1-2-.2-3.8-.2-3.7 0-6.3 2.3-6.3 6.4v3.6h-4.2v4.9h4.2V32l5-.1"/></g><title>Social Buttons</title></svg>