<svg width="25" height="25" viewBox="0 0 25 25" xmlns="http://www.w3.org/2000/svg"><title>favourite_on</title><path d="M7.005 20.84c-.41.25-.57.184-.459-.282l1.258-5.9c.047-.196.024-.272-.13-.404L3.22 10.19c-.366-.312-.26-.406.22-.444l5.942-.727c.203-.016.314-.098.392-.285l2.457-5.402c.185-.443.325-.443.51 0l2.493 5.402c.078.187.19.269.392.285l5.925.727c.48.038.603.078.237.39l-4.455 4.118c-.154.132-.177.208-.13.405l1.321 5.89c.112.466-.129.568-.54.318l-5.262-2.948c-.174-.105-.262-.105-.435 0l-5.28 2.922z" stroke-width="1.5" fill="#0AF" stroke="#FFF" fill-rule="evenodd"/></svg>
