<svg xmlns="http://www.w3.org/2000/svg" width="25" height="25" viewBox="0 0 25 25"><title>favourite_off</title><path d="M7.614 19.858c-.371.222-.515.164-.415-.25l1.135-5.245c.043-.175.022-.242-.117-.36l-4.02-3.612c-.33-.277-.235-.36.199-.395l5.361-.646c.183-.014.284-.087.354-.253l2.217-4.802c.167-.393.293-.393.46 0l2.25 4.802c.07.166.17.239.353.253l5.346.646c.433.034.544.07.214.347l-4.02 3.66c-.139.118-.16.185-.117.36l1.192 5.236c.1.415-.116.505-.487.283l-4.748-2.62c-.157-.094-.237-.094-.393 0l-4.764 2.596z" stroke-width="1.5" fill="#FFF" stroke="#0AF" fill-rule="evenodd"/></svg>
